<?xml version="1.0" standalone="no"?><!DOCTYPE svg PUBLIC "-//W3C//DTD SVG 1.1//EN" "http://www.w3.org/Graphics/SVG/1.1/DTD/svg11.dtd"><svg t="1533452709397" class="icon" style="" viewBox="0 0 1024 1024" version="1.1" xmlns="http://www.w3.org/2000/svg" p-id="7716" xmlns:xlink="http://www.w3.org/1999/xlink" width="200" height="200"><defs><style type="text/css"></style></defs><path d="M746.666 224c0 29.439333 23.894 53.333333 53.334 53.333333s53.334-23.894 53.334-53.333333c0-29.44-23.894-53.334-53.334-53.334s-53.334 23.894-53.334 53.334z m0 341.333333c0 29.44 23.894 53.334667 53.334 53.334667s53.334-23.894667 53.334-53.334667c0-29.439333-23.894-53.333333-53.334-53.333333s-53.334 23.894-53.334 53.333333zM0 704c0 47.146 38.186 85.333333 85.334 85.333333H448v58.88a97.538 97.538 0 0 0-26.454 26.454667L160 874.665333c-29.44 0-53.334 23.894667-53.334 53.334 0 29.44 23.894 53.334 53.334 53.334h261.546c17.28 25.814667 46.506 42.666 79.786 42.666s62.506-16.853333 79.786-42.666H864c29.44 0 53.334-23.894 53.334-53.334 0-29.439333-23.894-53.334-53.334-53.334H581.12a97.535333 97.535333 0 0 0-26.454-26.454V789.333333h384c47.146 0 85.334-38.185333 85.334-85.334V85.334C1024 38.187333 985.814 0 938.666 0H85.334C38.186 0 0 38.186 0 85.334V704z m153.6-597.334h716.8a46.8 46.8 0 0 1 46.934 46.933333v140.8a46.798 46.798 0 0 1-46.934 46.933334H153.6a46.8 46.8 0 0 1-46.934-46.933334V153.6a46.8 46.8 0 0 1 46.934-46.934z m0 341.334h716.8a46.798 46.798 0 0 1 46.934 46.933333v140.8a46.798667 46.798667 0 0 1-46.934 46.934l-716.8-0.002666a46.798 46.798 0 0 1-46.934-46.931334V494.933333A46.798667 46.798667 0 0 1 153.6 448z" p-id="7717"></path></svg>