<?xml version="1.0" standalone="no"?><!DOCTYPE svg PUBLIC "-//W3C//DTD SVG 1.1//EN" "http://www.w3.org/Graphics/SVG/1.1/DTD/svg11.dtd"><svg t="1555848158671" class="icon" style="" viewBox="0 0 1024 1024" version="1.1" xmlns="http://www.w3.org/2000/svg" p-id="35255" xmlns:xlink="http://www.w3.org/1999/xlink" width="200" height="200"><defs><style type="text/css"></style></defs><path d="M1015.279 779.123L852.603 562.43c27.632-53.017 43.476-113.148 43.476-177.021C896.079 173.33 723.486 0.737 511.346 0.737c-212.078 0-384.671 172.594-384.671 384.672 0 64.246 16.029 124.751 43.974 178.02L8.72 779.122c-6.486 8.61-8.296 19.839-4.928 30.067a32.534 32.534 0 0 0 21.706 21.209l140.66 42.54L236.89 1005.8c5.177 9.73 14.909 16.217 25.886 17.34 1.061 0.064 2.122 0.124 3.181 0.124 9.855 0 19.212-4.428 25.512-12.1l197.109-242.144c7.61 0.499 15.094 1.185 22.766 1.185 8.11 0 15.97-0.686 23.954-1.185l197.232 242.14c6.3 7.674 15.656 12.102 25.512 12.102 1.06 0 2.121-0.062 3.182-0.125 10.976-1.122 20.709-7.609 25.885-17.339l70.734-132.861 140.658-42.54a32.535 32.535 0 0 0 21.708-21.21c3.365-10.228 1.555-21.455-4.931-30.064z m-743.52 151.95l-53.892-101.174c-4.118-7.735-11.166-13.473-19.524-16.03L89.621 780.996l119.2-158.747c51.024 65.058 122.444 113.15 204.594 134.857L271.76 931.073z m553.897-117.205c-8.359 2.558-15.407 8.296-19.524 16.031L752.24 931.073 610.273 756.794c82.15-21.893 153.444-70.11 204.28-135.353l119.824 159.556-108.721 32.871z m-632.24-431.246c0-175.152 142.59-317.742 317.804-317.742 175.276 0 317.866 142.59 317.866 317.742 0 175.276-142.59 317.865-317.866 317.865-175.214 0.001-317.804-142.59-317.804-317.865z" p-id="35256"></path><path d="M443.733 175.5l42.656 9.14c-5.659 9.141-11.317 17.846-17.41 26.551h162.785v29.598c-15.234 17.41-30.032 33.08-44.831 46.137h118.825v40.044H415.442v66.159c-2.177 79.217-23.504 142.764-63.983 190.643l-33.515-29.598c35.691-38.303 53.972-92.274 55.713-161.045v-79.217c-9.576 7.835-19.587 14.799-29.162 21.328l-27.857-33.515c49.62-30.468 91.84-72.253 127.095-126.225z m90.099 111.426c14.798-12.187 29.162-26.115 43.96-40.914h-134.93c-12.186 14.799-24.809 28.292-37.867 40.914h128.837z m73.123 117.52H502.058v115.778c0 11.317 6.964 17.41 21.763 17.41h112.731c17.41 0 28.292-3.482 32.645-10.446 3.917-7.834 6.964-23.504 9.575-47.008l39.609 12.623c-4.353 40.044-10.882 63.983-19.587 71.817-8.705 7.4-25.245 11.317-50.054 11.317H505.105c-30.468 0-45.267-13.493-45.267-40.479V367.884h189.337v82.264c-0.435 26.55-13.928 40.479-40.914 42.22-19.587 0-38.303-0.436-56.149-1.306l-10.01-38.738c19.15 1.741 35.69 2.611 49.619 2.611 10.01 0 15.234-6.528 15.234-18.716v-31.773z" p-id="35257"></path></svg>