<?xml version="1.0" standalone="no"?><!DOCTYPE svg PUBLIC "-//W3C//DTD SVG 1.1//EN" "http://www.w3.org/Graphics/SVG/1.1/DTD/svg11.dtd"><svg t="1555827500653" class="icon" style="" viewBox="0 0 1024 1024" version="1.1" xmlns="http://www.w3.org/2000/svg" p-id="20547" xmlns:xlink="http://www.w3.org/1999/xlink" width="200" height="200"><defs><style type="text/css"></style></defs><path d="M660.083663 426.510954l115.568109 0c11.253298 0 28.892027-17.643845 28.892027-28.889981l0-101.123119c0-11.232832-17.638729-28.889981-28.892027-28.889981L660.083663 267.607874c-11.252275 0-28.892027 17.657148-28.892027 28.889981l0 101.123119C631.192659 408.866085 648.832412 426.510954 660.083663 426.510954zM674.529677 310.942845l86.676082 0 0 72.231091-86.676082 0L674.529677 310.942845zM891.220904 65.363683 140.031267 65.363683c-15.284101 0-28.892027 17.660218-28.892027 28.892027l0 837.865719c0 15.534811 13.355169 28.892027 28.892027 28.892027l751.189637 0c11.247158 0 28.892027-11.927657 28.892027-28.892027L920.112931 94.253664C920.112931 75.883271 908.185274 65.363683 891.220904 65.363683zM558.963615 917.675416l-86.676082 0L472.287533 715.431226l86.676082 0L558.963615 917.675416zM876.773867 917.675416 602.300632 917.675416 602.300632 700.985212c0-11.228739-17.638729-28.893051-28.889981-28.893051L457.842543 672.092162c-11.253298 0-28.892027 17.664312-28.892027 28.893051l0 216.689181L154.47728 917.674393 154.47728 195.375759l722.296587 0L876.773867 917.675416zM876.773867 152.038742 154.47728 152.038742 154.47728 108.699678l722.296587 0L876.773867 152.038742zM457.842543 426.510954l115.568109 0c11.252275 0 28.889981-17.643845 28.889981-28.889981l0-101.123119c0-11.232832-17.638729-28.889981-28.889981-28.889981L457.842543 267.607874c-11.253298 0-28.892027 17.657148-28.892027 28.889981l0 101.123119C428.950516 408.866085 446.589244 426.510954 457.842543 426.510954zM472.288556 310.942845l86.676082 0 0 72.231091-86.676082 0L472.288556 310.942845zM255.598352 426.510954l115.568109 0c11.252275 0 28.892027-17.643845 28.892027-28.889981l0-101.123119c0-11.232832-17.639752-28.889981-28.892027-28.889981L255.598352 267.607874c-11.253298 0-28.892027 17.657148-28.892027 28.889981l0 101.123119C226.707348 408.866085 244.345054 426.510954 255.598352 426.510954zM270.044366 310.942845l86.676082 0 0 72.231091L270.044366 383.173936 270.044366 310.942845zM457.842543 614.310154l115.568109 0c11.252275 0 28.889981-17.645892 28.889981-28.892027l0-101.122095c0-11.232832-17.638729-28.893051-28.889981-28.893051L457.842543 455.402981c-11.253298 0-28.892027 17.660218-28.892027 28.893051l0 101.122095C428.950516 596.664262 446.589244 614.310154 457.842543 614.310154zM472.288556 498.742045l86.676082 0 0 72.230068-86.676082 0L472.288556 498.742045zM660.083663 614.310154l115.568109 0c11.253298 0 28.892027-17.645892 28.892027-28.892027l0-101.122095c0-11.232832-17.638729-28.893051-28.892027-28.893051L660.083663 455.402981c-11.252275 0-28.892027 17.660218-28.892027 28.893051l0 101.122095C631.192659 596.664262 648.832412 614.310154 660.083663 614.310154zM674.529677 498.742045l86.676082 0 0 72.230068-86.676082 0L674.529677 498.742045zM255.598352 614.310154l115.568109 0c11.252275 0 28.892027-17.645892 28.892027-28.892027l0-101.122095c0-11.232832-17.639752-28.893051-28.892027-28.893051L255.598352 455.402981c-11.253298 0-28.892027 17.660218-28.892027 28.893051l0 101.122095C226.707348 596.664262 244.345054 614.310154 255.598352 614.310154zM270.044366 498.742045l86.676082 0 0 72.230068L270.044366 570.972113 270.044366 498.742045z" p-id="20548"></path></svg>