<?xml version="1.0" standalone="no"?><!DOCTYPE svg PUBLIC "-//W3C//DTD SVG 1.1//EN" "http://www.w3.org/Graphics/SVG/1.1/DTD/svg11.dtd"><svg t="1555840242088" class="icon" style="" viewBox="0 0 1024 1024" version="1.1" xmlns="http://www.w3.org/2000/svg" p-id="28394" xmlns:xlink="http://www.w3.org/1999/xlink" width="200" height="200"><defs><style type="text/css"></style></defs><path d="M893.325 18.673H127.532c-22.817 0-41.314 18.497-41.314 41.314v902.277c0 22.817 18.497 41.314 41.314 41.314h765.792c22.817 0 41.314-18.497 41.314-41.314V59.987c0.001-22.817-18.496-41.314-41.313-41.314z m-14.46 889.612c0 20.115-16.065 36.421-35.883 36.421H177.875c-19.817 0-35.882-16.306-35.882-36.421V112.888c0-20.114 16.065-36.42 35.882-36.42h665.107c19.817 0 35.883 16.306 35.883 36.42v795.397z" p-id="28395"></path><path d="M272.356 229.529m-36.15 0a36.15 36.15 0 1 0 72.3 0 36.15 36.15 0 1 0-72.3 0Z" p-id="28396"></path><path d="M745.058 193.379H411.1c-21.867 0-39.593 16.185-39.593 36.15s17.726 36.15 39.593 36.15h333.958c21.867 0 39.593-16.185 39.593-36.15s-17.726-36.15-39.593-36.15z" p-id="28397"></path><path d="M272.356 417.26m-36.15 0a36.15 36.15 0 1 0 72.3 0 36.15 36.15 0 1 0-72.3 0Z" p-id="28398"></path><path d="M745.058 381.11H411.1c-21.867 0-39.593 16.185-39.593 36.15s17.726 36.15 39.593 36.15h333.958c21.867 0 39.593-16.185 39.593-36.15s-17.726-36.15-39.593-36.15z" p-id="28399"></path><path d="M272.356 604.991m-36.15 0a36.15 36.15 0 1 0 72.3 0 36.15 36.15 0 1 0-72.3 0Z" p-id="28400"></path><path d="M745.058 568.841H411.1c-21.867 0-39.593 16.185-39.593 36.15s17.726 36.15 39.593 36.15h333.958c21.867 0 39.593-16.185 39.593-36.15s-17.726-36.15-39.593-36.15z" p-id="28401"></path><path d="M272.356 792.722m-36.15 0a36.15 36.15 0 1 0 72.3 0 36.15 36.15 0 1 0-72.3 0Z" p-id="28402"></path><path d="M745.058 756.572H411.1c-21.867 0-39.593 16.185-39.593 36.15s17.726 36.15 39.593 36.15h333.958c21.867 0 39.593-16.185 39.593-36.15s-17.726-36.15-39.593-36.15z" p-id="28403"></path></svg>