<?xml version="1.0" standalone="no"?><!DOCTYPE svg PUBLIC "-//W3C//DTD SVG 1.1//EN" "http://www.w3.org/Graphics/SVG/1.1/DTD/svg11.dtd"><svg t="1555848110822" class="icon" style="" viewBox="0 0 1041 1024" version="1.1" xmlns="http://www.w3.org/2000/svg" p-id="35113" xmlns:xlink="http://www.w3.org/1999/xlink" width="203.3203125" height="200"><defs><style type="text/css"></style></defs><path d="M933.514149 734.539422 804.15699 866.413915c-3.702322 3.800559-8.686846 5.922896-13.96813 5.922896l-0.148379 0c-5.281283 0-10.265808-2.122337-14.016225-5.922896l-74.18049-76.400041c-5.428639-5.577019-8.192589-12.338003-7.748475-18.903535 0.493234-6.861268 4.243651-13.029758 11.203156-18.311041 5.676279-4.39203 11.549034-6.613628 17.470907-6.613628 10.907421 0 18.163685 7.501858 20.531616 9.970072l46.788629 48.119951 99.499132-103.595426c4.737908-4.836145 11.597129-7.699356 18.508539-7.699356 6.415107 0 12.782118 2.368954 18.457374 6.861268 7.058766 5.577019 11.400654 13.029758 11.894911 20.482497C938.794409 725.852576 937.068092 730.886219 933.514149 734.539422L933.514149 734.539422zM416.624792 833.940316l-41.260729-46.295396 41.260729-206.992331 41.309848 206.992331L416.624792 833.940316 416.624792 833.940316zM822.268486 976.425472c-60.85295 0-117.512391-27.687596-156.156526-76.104305L-0.518816 899.92617l0-66.381873c0-41.605583 19.642362-74.821079 60.013839-101.522208 30.945803-20.481474 70.527286-34.548864 108.777449-48.170093 76.845179-27.341718 127.234823-48.416709 127.234823-90.170672 0-4.787026 0.050142-9.376555 0.099261-14.213723l0-0.73985c0.049119-3.702322 0.098237-7.749498 0.146333-11.993149-15.791661-19.396769-41.704844-56.561204-55.375192-104.829534-14.114462-10.610662-25.467021-26.799366-32.918737-47.034223-10.463306-28.575826-14.263865-70.724785 5.575995-104.680131-3.40454-34.548864-10.759041-127.433344 47.034223-192.087876 39.188534-43.8763 93.2805-68.899206 152.308895-70.527286l0.73985 0 0.740874 0c59.07649 1.62808 113.169479 26.650987 152.306848 70.527286 24.727171 27.638477 40.323381 63.617923 46.344514 106.900705 4.638647 33.067116 2.714831 63.962777 0.689708 85.284385 19.742646 33.95637 15.942087 75.957972 5.528923 104.484679-7.40362 20.085454-18.755156 36.274158-33.06814 47.083341-13.078877 46.294372-36.965913 82.223676-55.670927 105.075127-0.147356 9.031701-0.197498 19.050891-0.197498 28.181853 0 0.147356 0.394996 14.855336 37.165458 45.455261 19.790742 16.48444 39.97648 28.971845 44.221154 31.587416l26.996864 10.265808c15.250332-34.498722 39.23663-64.012919 69.836555-85.629239 33.708729-23.937179 73.242118-36.522822 114.254184-36.522822 111.493304 0 202.206328 93.328595 202.206328 208.079082C1024.474814 883.095853 933.76179 976.425472 822.268486 976.425472L822.268486 976.425472zM622.433158 736.710878l-35.782971-13.868869-0.591471-0.344854c-1.62808-0.98749-40.519856-23.88806-54.733579-35.682687-39.631626-32.91976-58.880015-62.878073-58.880015-91.700515 0-10.809183 0.147356-22.457478 0.246617-34.795481l0.198521-16.285918 7.402597-8.292873c12.092409-13.621229 41.409109-50.539047 52.710502-99.695606l3.208065-13.96813 12.635785-6.021134c6.26775-2.961448 12.189623-11.006681 16.237823-22.062482 6.514367-17.915022 7.303336-43.382043-3.800559-57.398268l-9.130961-11.499915 3.207042-13.078877c3.157923-29.711695 11.006681-106.556874-31.339776-153.986093-20.137643-22.505573-55.67195-49.650817-110.899786-51.427276-55.178717 1.77646-90.763167 28.92068-110.898763 51.427276-42.445718 47.529503-34.400484 125.459387-31.29168 155.071821 0.049119 0.344854 0.098237 0.689708 0.147356 1.084705l1.579985 12.635785-7.798617 9.771551c-11.154038 14.017248-10.314926 39.483246-3.800559 57.44841 4.097318 11.0558 9.970072 19.101033 16.090467 22.01234l12.684904 6.021134 3.208065 13.96813c11.301394 49.4042 40.470737 86.171592 52.463885 99.695606l7.402597 8.292873 0.148379 11.251252c0.098237 8.637728 0 16.286941-0.098237 23.690562l-0.050142 1.62808c-0.050142 4.54041-0.098237 8.78406-0.098237 13.078877 0 40.470737-19.297508 72.798003-58.929134 98.807377-30.254048 19.840884-69.194942 33.709753-106.803491 47.084365-78.719876 28.033473-130.246413 49.700959-130.246413 93.971232l0 7.40362 575.917752-0.148379c-8.389064-23.146163-12.633738-47.429219-12.633738-72.451102C620.114346 757.784846 620.902292 747.173161 622.433158 736.710878L622.433158 736.710878zM822.268486 619.246583c-79.854722 0-144.855132 66.87613-144.855132 149.10083 0 82.223676 65.00041 149.098783 144.855132 149.098783 79.905888 0 144.857179-66.875107 144.857179-149.098783C967.125665 686.122713 902.174374 619.246583 822.268486 619.246583L822.268486 619.246583z" p-id="35114"></path></svg>