<?xml version="1.0" standalone="no"?><!DOCTYPE svg PUBLIC "-//W3C//DTD SVG 1.1//EN" "http://www.w3.org/Graphics/SVG/1.1/DTD/svg11.dtd"><svg t="1550541655991" class="icon" style="" viewBox="0 0 1024 1024" version="1.1" xmlns="http://www.w3.org/2000/svg" p-id="1175" xmlns:xlink="http://www.w3.org/1999/xlink" width="200" height="200"><defs><style type="text/css"></style></defs><path d="M510.1 959.6c245.8 0 445.8-200 445.8-445.8S755.9 67.9 510.1 67.9 64.2 267.9 64.2 513.7s200 445.9 445.9 445.9z m0-829.8C721.7 129.8 894 302 894 513.7S721.7 897.6 510.1 897.6c-211.7 0-383.9-172.2-383.9-383.9s172.2-383.9 383.9-383.9zM293.3 573.6c0-17.1 13.9-31 31-31h371.5c17.1 0 31 13.9 31 31s-13.9 31-31 31H324.3c-17.1-0.1-31-13.9-31-31z m0-123.9c0-17.1 13.9-31 31-31h371.5c17.1 0 31 13.9 31 31s-13.9 31-31 31H324.3c-17.1 0-31-13.9-31-31z" fill="#333303" p-id="1176"></path></svg>