<?xml version="1.0" standalone="no"?><!DOCTYPE svg PUBLIC "-//W3C//DTD SVG 1.1//EN" "http://www.w3.org/Graphics/SVG/1.1/DTD/svg11.dtd"><svg t="1555836283325" class="icon" style="" viewBox="0 0 1024 1024" version="1.1" xmlns="http://www.w3.org/2000/svg" p-id="48378" xmlns:xlink="http://www.w3.org/1999/xlink" width="200" height="200"><defs><style type="text/css"></style></defs><path d="M1004 819.2h-50.4c-8 0-15.2-6.4-16-14.4-4-32.8-31.2-57.6-64-57.6s-60.8 24.8-64 57.6c-0.8 8-8 14.4-16 14.4H392c-8 0-15.2-6.4-16-14.4-4-32.8-31.2-57.6-64-57.6s-60.8 24.8-64 57.6c-0.8 8-8 14.4-16 14.4h-0.8c-8 0-15.2-6.4-16-14.4-4-32.8-31.2-57.6-64-57.6s-60.8 24.8-64 57.6c-0.8 8-8 14.4-16 14.4H20c-8.8 0-16-7.2-16-16V660.8c0-8.8 7.2-16 16-16h707.2V368c0-8.8 7.2-16 16-16h138.4c5.6 0 10.4 2.4 13.6 7.2l121.6 188.8c1.6 2.4 2.4 5.6 2.4 8.8v246.4c0.8 8.8-6.4 16-15.2 16z m-36.8-32h20.8V561.6L873.6 384H759.2v276.8c0 8.8-7.2 16-16 16H36v110.4h21.6c11.2-41.6 48.8-71.2 93.6-71.2 33.6 0 63.2 16.8 80.8 43.2 17.6-26.4 47.2-43.2 80.8-43.2 44 0 82.4 29.6 93.6 71.2h375.2c11.2-41.6 48.8-71.2 93.6-71.2 42.4-0.8 80.8 29.6 92 71.2z" p-id="48379"></path><path d="M944 559.2H790.4c-4.8 0-8-3.2-8-8v-136c0-4.8 3.2-8 8-8h66.4c2.4 0 5.6 1.6 6.4 4l88 136c1.6 2.4 1.6 5.6 0 8-1.6 2.4-4 4-7.2 4z m-145.6-16h131.2l-77.6-120h-53.6v120zM743.2 676.8H20c-8.8 0-16-7.2-16-16V280.8c0-8.8 7.2-16 16-16h723.2c8.8 0 16 7.2 16 16v380c0 8.8-7.2 16-16 16z m-707.2-32h691.2V296.8H36v348zM873.6 908.8c-53.6 0-96.8-43.2-96.8-96.8 0-3.2 0-7.2 0.8-11.2 5.6-48.8 46.4-85.6 96-85.6 48.8 0 90.4 36.8 96 85.6 0.8 4 0.8 7.2 0.8 11.2 0 53.6-43.2 96.8-96.8 96.8z m0-161.6c-32.8 0-60.8 24.8-64 57.6 0 2.4-0.8 4.8-0.8 7.2 0 36 28.8 64.8 64.8 64.8s64.8-28.8 64.8-64.8c0-2.4 0-4.8-0.8-7.2-3.2-32.8-31.2-57.6-64-57.6z" p-id="48380"></path><path d="M873.6 852.8c-22.4 0-40.8-18.4-40.8-40.8v-4.8c2.4-20.8 20-36 40-36 20.8 0 37.6 15.2 40 36v4.8c1.6 22.4-16.8 40.8-39.2 40.8z m0-65.6c-12.8 0-23.2 9.6-24 21.6v3.2c0 13.6 11.2 24.8 24.8 24.8s24.8-11.2 24.8-24.8v-3.2c-2.4-12-12.8-21.6-25.6-21.6zM150.4 908.8c-53.6 0-96.8-43.2-96.8-96.8 0-3.2 0-7.2 0.8-11.2 5.6-48.8 46.4-85.6 96-85.6 48.8 0 90.4 36.8 96 85.6 0.8 4 0.8 7.2 0.8 11.2 0 53.6-43.2 96.8-96.8 96.8z m0-161.6c-32.8 0-60.8 24.8-64 57.6 0 2.4-0.8 4.8-0.8 7.2 0 36 28.8 64.8 64.8 64.8s64.8-28.8 64.8-64.8c0-2.4 0-4.8-0.8-7.2-3.2-32.8-31.2-57.6-64-57.6z" p-id="48381"></path><path d="M150.4 852.8c-22.4 0-40.8-18.4-40.8-40.8v-4.8c2.4-20.8 20-36 40-36 20.8 0 37.6 15.2 40 36v4.8c1.6 22.4-16.8 40.8-39.2 40.8z m0-65.6c-12.8 0-23.2 9.6-24 21.6v3.2c0 13.6 11.2 24.8 24.8 24.8s24.8-11.2 24.8-24.8v-3.2c-2.4-12-12.8-21.6-25.6-21.6zM312 908.8c-53.6 0-96.8-43.2-96.8-96.8 0-3.2 0-7.2 0.8-11.2 5.6-48.8 46.4-85.6 96-85.6 48.8 0 90.4 36.8 96 85.6 0.8 4 0.8 7.2 0.8 11.2-0.8 53.6-44 96.8-96.8 96.8z m0-161.6c-32.8 0-60.8 24.8-64 57.6 0 2.4-0.8 4.8-0.8 7.2 0 36 28.8 64.8 64.8 64.8s64.8-28.8 64.8-64.8c0-2.4 0-4.8-0.8-7.2-4-32.8-31.2-57.6-64-57.6z" p-id="48382"></path><path d="M312 852.8c-22.4 0-40.8-18.4-40.8-40.8v-4.8c2.4-20.8 20-36 40-36 20.8 0 37.6 15.2 40 36v4.8c0.8 22.4-17.6 40.8-39.2 40.8z m0-65.6c-12.8 0-23.2 9.6-24 21.6v3.2c0 13.6 11.2 24.8 24.8 24.8s24.8-11.2 24.8-24.8v-3.2c-3.2-12-13.6-21.6-25.6-21.6zM848.8 605.6h-39.2c-4.8 0-8-3.2-8-8s3.2-8 8-8h39.2c4.8 0 8 3.2 8 8s-4 8-8 8zM670.4 296.8h-128c-3.2 0-6.4-0.8-9.6-3.2L424 213.6c-4-3.2-6.4-7.2-6.4-12.8 0-4.8 1.6-9.6 5.6-12.8l32-26.4c13.6-11.2 31.2-17.6 48.8-17.6s35.2 6.4 48.8 17.6l128.8 106.4c5.6 4 7.2 11.2 4.8 17.6-3.2 7.2-8.8 11.2-16 11.2z m-122.4-32h77.6l-94.4-77.6c-16-12.8-40.8-12.8-56.8 0l-16 12.8 89.6 64.8z" p-id="48383"></path><path d="M542.4 296.8H92.8c-7.2 0-12.8-4.8-15.2-11.2-2.4-6.4 0-13.6 5.6-17.6l189.6-138.4c13.6-9.6 28.8-14.4 44.8-14.4 16 0 32 4.8 44.8 14.4L552 268c5.6 4 8 11.2 5.6 17.6-1.6 7.2-8 11.2-15.2 11.2z m-400.8-32h352L344 156c-15.2-11.2-37.6-11.2-52.8 0L141.6 264.8zM169.6 570.4c-4.8 0-8-3.2-8-8V379.2c0-4.8 3.2-8 8-8s8 3.2 8 8v182.4c0 4.8-4 8.8-8 8.8zM311.2 570.4c-4.8 0-8-3.2-8-8V379.2c0-4.8 3.2-8 8-8s8 3.2 8 8v182.4c0 4.8-4 8.8-8 8.8zM452.8 570.4c-4.8 0-8-3.2-8-8V379.2c0-4.8 3.2-8 8-8s8 3.2 8 8v182.4c0 4.8-4 8.8-8 8.8zM594.4 570.4c-4.8 0-8-3.2-8-8V379.2c0-4.8 3.2-8 8-8s8 3.2 8 8v182.4c0 4.8-4 8.8-8 8.8z" p-id="48384"></path></svg>