<?xml version="1.0" standalone="no"?><!DOCTYPE svg PUBLIC "-//W3C//DTD SVG 1.1//EN" "http://www.w3.org/Graphics/SVG/1.1/DTD/svg11.dtd"><svg t="1555835357030" class="icon" style="" viewBox="0 0 1024 1024" version="1.1" xmlns="http://www.w3.org/2000/svg" p-id="36275" xmlns:xlink="http://www.w3.org/1999/xlink" width="200" height="200"><defs><style type="text/css"></style></defs><path d="M888.8 289.6c-2.4 0-4.8-0.8-7.2-1.6L418.4 46.4v227.2c0 8.8-7.2 16-16 16s-16-7.2-16-16V20c0-5.6 3.2-10.4 8-13.6 4.8-3.2 10.4-3.2 16-0.8l486.4 253.6c8 4 11.2 13.6 7.2 21.6-3.2 5.6-8.8 8.8-15.2 8.8zM817.6 1020h-656c-8.8 0-16-7.2-16-16v-74.4c0-8.8 7.2-16 16-16h656c8.8 0 16 7.2 16 16v74.4c0 8.8-7.2 16-16 16z m-640-32h624v-42.4h-624v42.4zM188.8 424H20c-8.8 0-16-7.2-16-16V218.4c0-8.8 7.2-16 16-16h168.8c8.8 0 16 7.2 16 16V408c0 8.8-7.2 16-16 16zM36 392h136.8V234.4H36V392z" p-id="36276"></path><path d="M456.8 945.6H348c-8.8 0-16-7.2-16-16V352.8c0-8.8 7.2-16 16-16h108.8c8.8 0 16 7.2 16 16v576.8c0 8.8-7.2 16-16 16z m-92.8-32h76.8V368.8h-76.8v544.8z" p-id="36277"></path><path d="M937.6 368.8H188.8c-8.8 0-16-7.2-16-16v-80c0-8.8 7.2-16 16-16h748.8c8.8 0 16 7.2 16 16v80c0 8.8-7.2 16-16 16z m-732.8-32h716.8v-48H204.8v48z" p-id="36278"></path><path d="M888.8 706.4c-8.8 0-16-7.2-16-16V352.8c0-8.8 7.2-16 16-16s16 7.2 16 16v337.6c0 9.6-7.2 16-16 16z" p-id="36279"></path><path d="M1004 788.8H774.4c-8.8 0-16-7.2-16-16V691.2c0-8.8 7.2-16 16-16h229.6c8.8 0 16 7.2 16 16v81.6c0 8.8-7.2 16-16 16z m-213.6-32h197.6v-49.6H790.4v49.6z" p-id="36280"></path></svg>