<?xml version="1.0" standalone="no"?><!DOCTYPE svg PUBLIC "-//W3C//DTD SVG 1.1//EN" "http://www.w3.org/Graphics/SVG/1.1/DTD/svg11.dtd"><svg t="1555838565464" class="icon" style="" viewBox="0 0 1024 1024" version="1.1" xmlns="http://www.w3.org/2000/svg" p-id="13227" xmlns:xlink="http://www.w3.org/1999/xlink" width="200" height="200"><defs><style type="text/css"></style></defs><path d="M932.693333 405.333333L561.92 35.413333a70.826667 70.826667 0 0 0-99.84 0L91.306667 405.333333a70.613333 70.613333 0 0 0-21.333334 49.92V938.666667a70.613333 70.613333 0 0 0 70.613334 70.613333h742.186666A70.613333 70.613333 0 0 0 953.386667 938.666667V456.106667a70.613333 70.613333 0 0 0-20.693334-50.773334z m-49.92 498.133334A35.2 35.2 0 0 1 847.36 938.666667H176.64a35.2 35.2 0 0 1-35.413333-35.413334V470.613333a34.773333 34.773333 0 0 1 10.453333-24.96L487.04 110.08a35.2 35.2 0 0 1 49.706667 0l335.573333 335.573333a34.773333 34.773333 0 0 1 10.453333 24.96z" p-id="13228"></path><path d="M728.746667 527.36a35.413333 35.413333 0 0 0-33.28 24.106667 194.133333 194.133333 0 0 1-366.72 0 35.413333 35.413333 0 0 0-33.28-24.106667 34.986667 34.986667 0 0 0-33.706667 45.653333 264.533333 264.533333 0 0 0 500.906667 0 34.986667 34.986667 0 0 0-33.92-45.653333z" p-id="13229"></path></svg>