<?xml version="1.0" standalone="no"?><!DOCTYPE svg PUBLIC "-//W3C//DTD SVG 1.1//EN" "http://www.w3.org/Graphics/SVG/1.1/DTD/svg11.dtd"><svg t="1555836181348" class="icon" style="" viewBox="0 0 1024 1024" version="1.1" xmlns="http://www.w3.org/2000/svg" p-id="47050" xmlns:xlink="http://www.w3.org/1999/xlink" width="200" height="200"><defs><style type="text/css"></style></defs><path d="M96 900.8c-50.4 0-92-41.6-92-92V460.8c0-50.4 41.6-92 92-92s92 41.6 92 92v348c0 51.2-41.6 92-92 92z m0-500c-32.8 0-60 27.2-60 60v348c0 32.8 27.2 60 60 60s60-27.2 60-60V460.8c0-32.8-27.2-60-60-60zM928 900.8c-50.4 0-92-41.6-92-92V460.8c0-50.4 41.6-92 92-92s92 41.6 92 92v348c0 51.2-41.6 92-92 92z m0-500c-32.8 0-60 27.2-60 60v348c0 32.8 27.2 60 60 60s60-27.2 60-60V460.8c0-32.8-27.2-60-60-60zM638.4 472.8H385.6c-8.8 0-16-7.2-16-16V372c0-8.8 7.2-16 16-16h252.8c8.8 0 16 7.2 16 16v85.6c0 8-7.2 15.2-16 15.2z m-236.8-32h220.8v-53.6H401.6v53.6z" p-id="47051"></path><path d="M852 828.8h-680c-8.8 0-16-7.2-16-16V456.8c0-8.8 7.2-16 16-16h680c8.8 0 16 7.2 16 16v356c0 8.8-7.2 16-16 16z m-664-32h648V472.8h-648v324zM544.8 388h-65.6c-8.8 0-16-7.2-16-16V245.6c0-8.8 7.2-16 16-16h65.6c8.8 0 16 7.2 16 16v126.4c0 8.8-7.2 16-16 16z m-49.6-32h33.6V261.6h-33.6v94.4z" p-id="47052"></path><path d="M776 261.6H248c-38.4 0-68.8-31.2-68.8-68.8s31.2-68.8 68.8-68.8h528c38.4 0 68.8 31.2 68.8 68.8s-31.2 68.8-68.8 68.8zM248 155.2c-20.8 0-36.8 16.8-36.8 36.8s16.8 36.8 36.8 36.8h528c20.8 0 36.8-16.8 36.8-36.8s-16.8-36.8-36.8-36.8H248zM736.8 639.2c-4.8 0-8-3.2-8-8V456.8c0-4.8 3.2-8 8-8s8 3.2 8 8v173.6c0 4.8-3.2 8.8-8 8.8zM272 820.8c-4.8 0-8-3.2-8-8v-75.2c0-4.8 3.2-8 8-8s8 3.2 8 8v75.2c0 4-4 8-8 8zM638.4 788c-4.8 0-8-3.2-8-8V609.6c0-4.8 3.2-8 8-8s8 3.2 8 8v170.4c0 4.8-4 8-8 8z" p-id="47053"></path></svg>