<?xml version="1.0" standalone="no"?><!DOCTYPE svg PUBLIC "-//W3C//DTD SVG 1.1//EN" "http://www.w3.org/Graphics/SVG/1.1/DTD/svg11.dtd"><svg t="1555827595760" class="icon" style="" viewBox="0 0 1024 1024" version="1.1" xmlns="http://www.w3.org/2000/svg" p-id="20827" xmlns:xlink="http://www.w3.org/1999/xlink" width="200" height="200"><defs><style type="text/css"></style></defs><path d="M864.4 129.5l0.1 0.1v767.5l-0.1 0.1H162.6l-0.1-0.1V129.6l0.1-0.1h701.8m0.1-64h-702c-35.2 0-64 28.8-64 64v767.7c0 35.2 28.8 64 64 64h702c35.2 0 64-28.8 64-64V129.5c0-35.2-28.8-64-64-64z" p-id="20828"></path><path d="M703.8 289.6H320.6c-17.7 0-32-14.3-32-32s14.3-32 32-32h383.3c17.7 0 32 14.3 32 32s-14.4 32-32.1 32zM703.8 417.5H320.6c-17.7 0-32-14.3-32-32s14.3-32 32-32h383.3c17.7 0 32 14.3 32 32s-14.4 32-32.1 32zM448.6 546.7h-128c-17.7 0-32-14.3-32-32s14.3-32 32-32h128c17.7 0 32 14.3 32 32s-14.3 32-32 32zM803.3 833.5l-325.4-0.5c-7.1 0-13.7-3.8-17.3-10-3.6-6.2-3.5-13.8 0-20l163.1-281.5c3.6-6.2 10.2-10 17.3-10 7.1 0 13.7 3.8 17.3 10l162.2 282.1c3.6 6.2 3.5 13.8 0 20-3.5 6.1-10.1 9.9-17.2 9.9zM512.6 793l256.1 0.4L641 571.5 512.6 793z" p-id="20829"></path><path d="M641.1 725c-11 0-20-9-20-20v-68c0-11 9-20 20-20s20 9 20 20v68c0 11-8.9 20-20 20zM641.1 783c-13.8 0-25-11.2-25-25v-0.2c0-13.8 11.2-25 25-25s25 11.2 25 25v0.2c0 13.8-11.2 25-25 25z" p-id="20830"></path></svg>