<?xml version="1.0" standalone="no"?><!DOCTYPE svg PUBLIC "-//W3C//DTD SVG 1.1//EN" "http://www.w3.org/Graphics/SVG/1.1/DTD/svg11.dtd"><svg t="1550541583387" class="icon" style="" viewBox="0 0 1024 1024" version="1.1" xmlns="http://www.w3.org/2000/svg" p-id="2576" xmlns:xlink="http://www.w3.org/1999/xlink" width="200" height="200"><defs><style type="text/css"></style></defs><path d="M674.304 434.112c0 136.256-110.464 246.72-246.72 246.72-136.256 0-246.72-110.464-246.72-246.72s110.464-246.72 246.72-246.72C563.904 187.392 674.304 297.792 674.304 434.112zM621.44 429.696c0-109.504-88.768-198.272-198.272-198.272S224.96 320.192 224.96 429.696s88.768 198.272 198.272 198.272S621.44 539.2 621.44 429.696zM64 434.112c0-200.832 162.752-363.584 363.584-363.584 200.768 0 363.584 162.752 363.584 363.584 0 68.16-19.136 131.712-51.776 186.304l-65.152-43.456-4.416 3.328c27.392-44.416 43.392-96.64 43.392-152.64 0-161.344-130.752-292.16-292.16-292.16-161.344 0-292.16 130.816-292.16 292.16 0 161.344 130.816 292.16 292.16 292.16 68.224 0 130.816-23.552 180.544-62.72 30.976-12.608 73.408-21.952 111.616-2.176l5.504-3.648c-1.28 1.728-2.688 3.392-4.032 5.12L960 901.568l-51.968 51.968-220.736-220.736c0 0-15.232-15.616-44.864-5.824-60.096 44.352-134.336 70.72-214.848 70.72C226.752 797.696 64 634.88 64 434.112z" p-id="2577"></path></svg>