<?xml version="1.0" standalone="no"?><!DOCTYPE svg PUBLIC "-//W3C//DTD SVG 1.1//EN" "http://www.w3.org/Graphics/SVG/1.1/DTD/svg11.dtd"><svg t="1555839159236" class="icon" style="" viewBox="0 0 1024 1024" version="1.1" xmlns="http://www.w3.org/2000/svg" p-id="22475" xmlns:xlink="http://www.w3.org/1999/xlink" width="200" height="200"><defs><style type="text/css"></style></defs><path d="M424.9 142.4c0.1 0.1 0.3 0.2 0.3 0.3V878c-0.1 0.1-0.2 0.3-0.3 0.3H145.6c-0.1-0.1-0.3-0.2-0.3-0.3V142.7c0.1-0.1 0.2-0.3 0.3-0.3h279.3m0-80H145.5c-44.2 0-80.3 36.1-80.3 80.3v735.4c0 44.2 36.1 80.3 80.3 80.3h279.4c44.2 0 80.3-36.1 80.3-80.3V142.7c0-44.1-36.1-80.3-80.3-80.3z" p-id="22476"></path><path d="M879.8 142.9c0.1 0.1 0.3 0.2 0.3 0.3v341c-0.1 0.1-0.2 0.3-0.3 0.3H631.4c-0.1-0.1-0.3-0.2-0.3-0.3v-341c0.1-0.1 0.2-0.3 0.3-0.3h248.4m0-80H631.3c-44.2 0-80.3 36.1-80.3 80.3v341c0 44.2 36.1 80.3 80.3 80.3h248.5c44.2 0 80.3-36.1 80.3-80.3v-341c0-44.1-36.1-80.3-80.3-80.3z" p-id="22477"></path><path d="M880.2 688.1c0.1 0.1 0.3 0.2 0.3 0.3v189.7c-0.1 0.1-0.2 0.3-0.3 0.3H631.8c-0.1-0.1-0.3-0.2-0.3-0.3V688.4c0.1-0.1 0.2-0.3 0.3-0.3h248.4m0-80H631.7c-44.2 0-80.3 36.1-80.3 80.3v189.8c0 44.2 36.1 80.3 80.3 80.3h248.5c44.2 0 80.3-36.1 80.3-80.3V688.4c0-44.2-36.1-80.3-80.3-80.3z" p-id="22478"></path></svg>