<?xml version="1.0" standalone="no"?><!DOCTYPE svg PUBLIC "-//W3C//DTD SVG 1.1//EN" "http://www.w3.org/Graphics/SVG/1.1/DTD/svg11.dtd"><svg t="1555825237659" class="icon" style="" viewBox="0 0 1024 1024" version="1.1" xmlns="http://www.w3.org/2000/svg" p-id="7124" xmlns:xlink="http://www.w3.org/1999/xlink" width="200" height="200"><defs><style type="text/css"></style></defs><path d="M416 614.4H256c-19.2 0-32 12.8-32 32s12.8 32 32 32h160c19.2 0 32-12.8 32-32s-12.8-32-32-32zM416 358.4H256c-19.2 0-32 12.8-32 32s12.8 32 32 32h160c19.2 0 32-12.8 32-32s-12.8-32-32-32z" p-id="7125"></path><path d="M992 902.4h-64V460.8c0-38.4-28.8-73.6-67.2-83.2L576 304V134.4c0-22.4-9.6-44.8-28.8-57.6-22.4-16-54.4-22.4-86.4-12.8L166.4 137.6C124.8 147.2 96 185.6 96 227.2v678.4H32c-19.2 0-32 12.8-32 32s12.8 32 32 32h960c19.2 0 32-12.8 32-32s-12.8-35.2-32-35.2z m-480 0H160V227.2c0-12.8 9.6-25.6 22.4-28.8l294.4-76.8c16-3.2 25.6 0 32 3.2 3.2 3.2 3.2 6.4 3.2 9.6v768z m352 0h-288V368l268.8 70.4c9.6 3.2 19.2 16 19.2 22.4v441.6z" p-id="7126"></path><path d="M768 614.4h-96c-19.2 0-32 12.8-32 32s12.8 32 32 32h96c19.2 0 32-12.8 32-32s-12.8-32-32-32z" p-id="7127"></path></svg>